<mxfile host="Electron" agent="Mozilla/5.0 (Windows NT 10.0; Win64; x64) AppleWebKit/537.36 (KHTML, like Gecko) draw.io/24.7.17 Chrome/128.0.6613.36 Electron/32.0.1 Safari/537.36" version="24.7.17">
  <diagram id="R2lEEEUBdFMjLlhIrx00" name="Page-1">
    <mxGraphModel dx="2163" dy="776" grid="1" gridSize="10" guides="1" tooltips="1" connect="1" arrows="1" fold="1" page="1" pageScale="1" pageWidth="850" pageHeight="1100" math="0" shadow="0" extFonts="Permanent Marker^https://fonts.googleapis.com/css?family=Permanent+Marker">
      <root>
        <mxCell id="0" />
        <mxCell id="1" parent="0" />
        <mxCell id="XMGHCFaLuTb-ErzqM0Ou-1" value="Customer" style="rounded=0;whiteSpace=wrap;html=1;" parent="1" vertex="1">
          <mxGeometry x="-255" y="520" width="120" height="60" as="geometry" />
        </mxCell>
        <mxCell id="XMGHCFaLuTb-ErzqM0Ou-2" value="&#xa;Feedback&#xa;&#xa;" style="rounded=0;whiteSpace=wrap;html=1;" parent="1" vertex="1">
          <mxGeometry x="-552.5" y="860" width="120" height="60" as="geometry" />
        </mxCell>
        <mxCell id="XMGHCFaLuTb-ErzqM0Ou-4" value="Inventory" style="rounded=0;whiteSpace=wrap;html=1;" parent="1" vertex="1">
          <mxGeometry x="635" y="1040" width="120" height="60" as="geometry" />
        </mxCell>
        <mxCell id="XMGHCFaLuTb-ErzqM0Ou-5" value="&#xa;Appointment&#xa;&#xa;" style="rounded=0;whiteSpace=wrap;html=1;" parent="1" vertex="1">
          <mxGeometry x="140" y="470.0000000000001" width="120" height="60" as="geometry" />
        </mxCell>
        <mxCell id="XMGHCFaLuTb-ErzqM0Ou-7" value="&#xa;Service&#xa;&#xa;" style="rounded=0;whiteSpace=wrap;html=1;" parent="1" vertex="1">
          <mxGeometry x="375" y="720.83" width="120" height="60" as="geometry" />
        </mxCell>
        <mxCell id="XMGHCFaLuTb-ErzqM0Ou-9" value="&#xa;Service_Type&#xa;&#xa;" style="ellipse;whiteSpace=wrap;html=1;" parent="1" vertex="1">
          <mxGeometry x="525" y="610.83" width="110" height="60" as="geometry" />
        </mxCell>
        <mxCell id="XMGHCFaLuTb-ErzqM0Ou-10" value="&#xa;Service_ID&#xa;&#xa;" style="ellipse;whiteSpace=wrap;html=1;fontStyle=4" parent="1" vertex="1">
          <mxGeometry x="400" y="580" width="110" height="60" as="geometry" />
        </mxCell>
        <mxCell id="XMGHCFaLuTb-ErzqM0Ou-13" value="&#xa;Address&#xa;&#xa;" style="ellipse;whiteSpace=wrap;html=1;" parent="1" vertex="1">
          <mxGeometry x="-475" y="510" width="110" height="60" as="geometry" />
        </mxCell>
        <mxCell id="XMGHCFaLuTb-ErzqM0Ou-14" value="&#xa;Phone&#xa;&#xa;" style="ellipse;whiteSpace=wrap;html=1;" parent="1" vertex="1">
          <mxGeometry x="-560" y="430" width="110" height="60" as="geometry" />
        </mxCell>
        <mxCell id="XMGHCFaLuTb-ErzqM0Ou-15" value="&#xa;Email&#xa;&#xa;" style="ellipse;whiteSpace=wrap;html=1;" parent="1" vertex="1">
          <mxGeometry x="-420" y="390" width="110" height="60" as="geometry" />
        </mxCell>
        <mxCell id="XMGHCFaLuTb-ErzqM0Ou-17" value="&#xa;Customer_ID&#xa;&#xa;" style="ellipse;whiteSpace=wrap;html=1;fontStyle=4" parent="1" vertex="1">
          <mxGeometry x="-170" y="380" width="110" height="60" as="geometry" />
        </mxCell>
        <mxCell id="XMGHCFaLuTb-ErzqM0Ou-19" value="" style="endArrow=none;html=1;rounded=0;exitX=0.75;exitY=0;exitDx=0;exitDy=0;" parent="1" source="XMGHCFaLuTb-ErzqM0Ou-1" target="XMGHCFaLuTb-ErzqM0Ou-17" edge="1">
          <mxGeometry width="50" height="50" relative="1" as="geometry">
            <mxPoint x="-215" y="730" as="sourcePoint" />
            <mxPoint x="-165" y="680" as="targetPoint" />
          </mxGeometry>
        </mxCell>
        <mxCell id="XMGHCFaLuTb-ErzqM0Ou-22" value="" style="endArrow=none;html=1;rounded=0;exitX=0.961;exitY=0.263;exitDx=0;exitDy=0;exitPerimeter=0;" parent="1" source="XMGHCFaLuTb-ErzqM0Ou-13" edge="1">
          <mxGeometry width="50" height="50" relative="1" as="geometry">
            <mxPoint x="-305" y="600" as="sourcePoint" />
            <mxPoint x="-255" y="550" as="targetPoint" />
          </mxGeometry>
        </mxCell>
        <mxCell id="XMGHCFaLuTb-ErzqM0Ou-23" value="" style="endArrow=none;html=1;rounded=0;exitX=1;exitY=0.5;exitDx=0;exitDy=0;" parent="1" source="XMGHCFaLuTb-ErzqM0Ou-14" edge="1">
          <mxGeometry width="50" height="50" relative="1" as="geometry">
            <mxPoint x="-305" y="570" as="sourcePoint" />
            <mxPoint x="-255" y="520" as="targetPoint" />
          </mxGeometry>
        </mxCell>
        <mxCell id="XMGHCFaLuTb-ErzqM0Ou-24" value="" style="endArrow=none;html=1;rounded=0;entryX=0.25;entryY=0;entryDx=0;entryDy=0;exitX=0.771;exitY=0.936;exitDx=0;exitDy=0;exitPerimeter=0;" parent="1" source="XMGHCFaLuTb-ErzqM0Ou-15" target="XMGHCFaLuTb-ErzqM0Ou-1" edge="1">
          <mxGeometry width="50" height="50" relative="1" as="geometry">
            <mxPoint x="-325" y="490" as="sourcePoint" />
            <mxPoint x="-275" y="440" as="targetPoint" />
          </mxGeometry>
        </mxCell>
        <mxCell id="XMGHCFaLuTb-ErzqM0Ou-25" value="" style="endArrow=none;html=1;rounded=0;exitX=0.5;exitY=0;exitDx=0;exitDy=0;" parent="1" source="XMGHCFaLuTb-ErzqM0Ou-16" target="XMGHCFaLuTb-ErzqM0Ou-1" edge="1">
          <mxGeometry width="50" height="50" relative="1" as="geometry">
            <mxPoint x="-275" y="490" as="sourcePoint" />
            <mxPoint x="-225" y="440" as="targetPoint" />
          </mxGeometry>
        </mxCell>
        <mxCell id="XMGHCFaLuTb-ErzqM0Ou-27" value="&#xa;Order_ID&#xa;&#xa;" style="ellipse;whiteSpace=wrap;html=1;fontStyle=4" parent="1" vertex="1">
          <mxGeometry x="-40" y="1030" width="100" height="50" as="geometry" />
        </mxCell>
        <mxCell id="XMGHCFaLuTb-ErzqM0Ou-28" value="&#xa;Service_Status&#xa;&#xa;" style="ellipse;whiteSpace=wrap;html=1;" parent="1" vertex="1">
          <mxGeometry x="585" y="700.83" width="110" height="60" as="geometry" />
        </mxCell>
        <mxCell id="XMGHCFaLuTb-ErzqM0Ou-30" value="" style="endArrow=none;html=1;rounded=0;" parent="1" source="XMGHCFaLuTb-ErzqM0Ou-10" target="XMGHCFaLuTb-ErzqM0Ou-7" edge="1">
          <mxGeometry width="50" height="50" relative="1" as="geometry">
            <mxPoint x="317.5" y="760.83" as="sourcePoint" />
            <mxPoint x="367.5" y="710.83" as="targetPoint" />
          </mxGeometry>
        </mxCell>
        <mxCell id="XMGHCFaLuTb-ErzqM0Ou-31" value="" style="endArrow=none;html=1;rounded=0;" parent="1" source="XMGHCFaLuTb-ErzqM0Ou-9" target="XMGHCFaLuTb-ErzqM0Ou-7" edge="1">
          <mxGeometry width="50" height="50" relative="1" as="geometry">
            <mxPoint x="307.5" y="840.83" as="sourcePoint" />
            <mxPoint x="357.5" y="790.83" as="targetPoint" />
          </mxGeometry>
        </mxCell>
        <mxCell id="XMGHCFaLuTb-ErzqM0Ou-32" value="" style="endArrow=none;html=1;rounded=0;entryX=0;entryY=1;entryDx=0;entryDy=0;" parent="1" source="XMGHCFaLuTb-ErzqM0Ou-7" target="XMGHCFaLuTb-ErzqM0Ou-28" edge="1">
          <mxGeometry width="50" height="50" relative="1" as="geometry">
            <mxPoint x="317.5" y="940.83" as="sourcePoint" />
            <mxPoint x="367.5" y="890.83" as="targetPoint" />
          </mxGeometry>
        </mxCell>
        <mxCell id="XMGHCFaLuTb-ErzqM0Ou-34" value="&#xa;Order&#xa;&#xa;" style="rounded=0;whiteSpace=wrap;html=1;" parent="1" vertex="1">
          <mxGeometry x="-80" y="830" width="120" height="60" as="geometry" />
        </mxCell>
        <mxCell id="XMGHCFaLuTb-ErzqM0Ou-37" value="&lt;br&gt;Date" style="ellipse;whiteSpace=wrap;html=1;" parent="1" vertex="1">
          <mxGeometry x="-372.5" y="1530" width="110" height="60" as="geometry" />
        </mxCell>
        <mxCell id="XMGHCFaLuTb-ErzqM0Ou-39" value="&lt;br&gt;Receipt_ID&lt;br&gt;" style="ellipse;whiteSpace=wrap;html=1;fontStyle=4;verticalAlign=top;" parent="1" vertex="1">
          <mxGeometry x="-250" y="1540" width="110" height="55" as="geometry" />
        </mxCell>
        <mxCell id="XMGHCFaLuTb-ErzqM0Ou-42" value="&#xa;Order_Date&#xa;&#xa;" style="ellipse;whiteSpace=wrap;html=1;verticalAlign=middle;" parent="1" vertex="1">
          <mxGeometry x="65" y="990" width="110" height="50" as="geometry" />
        </mxCell>
        <mxCell id="XMGHCFaLuTb-ErzqM0Ou-44" value="" style="endArrow=none;html=1;rounded=0;" parent="1" source="XMGHCFaLuTb-ErzqM0Ou-27" target="XMGHCFaLuTb-ErzqM0Ou-34" edge="1">
          <mxGeometry width="50" height="50" relative="1" as="geometry">
            <mxPoint x="-475" y="1215" as="sourcePoint" />
            <mxPoint x="-410" y="1129.4186046511627" as="targetPoint" />
          </mxGeometry>
        </mxCell>
        <mxCell id="XMGHCFaLuTb-ErzqM0Ou-47" value="" style="endArrow=none;html=1;rounded=0;" parent="1" source="XMGHCFaLuTb-ErzqM0Ou-42" target="XMGHCFaLuTb-ErzqM0Ou-34" edge="1">
          <mxGeometry width="50" height="50" relative="1" as="geometry">
            <mxPoint x="-475" y="1465" as="sourcePoint" />
            <mxPoint x="-410" y="1154.591836734694" as="targetPoint" />
          </mxGeometry>
        </mxCell>
        <mxCell id="XMGHCFaLuTb-ErzqM0Ou-49" value="" style="endArrow=none;html=1;rounded=0;exitX=0.64;exitY=0.039;exitDx=0;exitDy=0;exitPerimeter=0;" parent="1" source="6DCUN2IV6UkUwcPhrK3Y-5" target="XMGHCFaLuTb-ErzqM0Ou-34" edge="1">
          <mxGeometry width="50" height="50" relative="1" as="geometry">
            <mxPoint x="-10" y="1190" as="sourcePoint" />
            <mxPoint x="-55" y="1440" as="targetPoint" />
          </mxGeometry>
        </mxCell>
        <mxCell id="XMGHCFaLuTb-ErzqM0Ou-50" value="Receipt" style="rounded=0;whiteSpace=wrap;html=1;" parent="1" vertex="1">
          <mxGeometry x="-255" y="1440" width="120" height="60" as="geometry" />
        </mxCell>
        <mxCell id="XMGHCFaLuTb-ErzqM0Ou-56" value="" style="endArrow=none;html=1;rounded=0;" parent="1" source="XMGHCFaLuTb-ErzqM0Ou-39" target="XMGHCFaLuTb-ErzqM0Ou-50" edge="1">
          <mxGeometry width="50" height="50" relative="1" as="geometry">
            <mxPoint x="247.5" y="1525" as="sourcePoint" />
            <mxPoint x="297.5" y="1475" as="targetPoint" />
          </mxGeometry>
        </mxCell>
        <mxCell id="XMGHCFaLuTb-ErzqM0Ou-58" value="" style="endArrow=none;html=1;rounded=0;" parent="1" source="XMGHCFaLuTb-ErzqM0Ou-37" target="XMGHCFaLuTb-ErzqM0Ou-50" edge="1">
          <mxGeometry width="50" height="50" relative="1" as="geometry">
            <mxPoint x="327.5" y="1535" as="sourcePoint" />
            <mxPoint x="377.5" y="1485" as="targetPoint" />
          </mxGeometry>
        </mxCell>
        <mxCell id="XMGHCFaLuTb-ErzqM0Ou-61" value="&#xa;Inventory_ID&#xa;&#xa;" style="ellipse;whiteSpace=wrap;html=1;fontStyle=4" parent="1" vertex="1">
          <mxGeometry x="645" y="940" width="110" height="60" as="geometry" />
        </mxCell>
        <mxCell id="XMGHCFaLuTb-ErzqM0Ou-62" value="&#xa;Last_Updated&#xa;&#xa;" style="ellipse;whiteSpace=wrap;html=1;" parent="1" vertex="1">
          <mxGeometry x="750" y="1120" width="110" height="60" as="geometry" />
        </mxCell>
        <mxCell id="XMGHCFaLuTb-ErzqM0Ou-63" value="&#xa;Stock_Level&#xa;&#xa;" style="ellipse;whiteSpace=wrap;html=1;" parent="1" vertex="1">
          <mxGeometry x="570" y="1180" width="110" height="60" as="geometry" />
        </mxCell>
        <mxCell id="XMGHCFaLuTb-ErzqM0Ou-64" value="&#xa;Product_Name&#xa;&#xa;" style="ellipse;whiteSpace=wrap;html=1;" parent="1" vertex="1">
          <mxGeometry x="495" y="1110" width="110" height="60" as="geometry" />
        </mxCell>
        <mxCell id="XMGHCFaLuTb-ErzqM0Ou-65" value="Unit price" style="ellipse;whiteSpace=wrap;html=1;" parent="1" vertex="1">
          <mxGeometry x="695" y="1190" width="110" height="60" as="geometry" />
        </mxCell>
        <mxCell id="XMGHCFaLuTb-ErzqM0Ou-66" value="" style="endArrow=none;html=1;rounded=0;" parent="1" source="XMGHCFaLuTb-ErzqM0Ou-61" target="XMGHCFaLuTb-ErzqM0Ou-4" edge="1">
          <mxGeometry width="50" height="50" relative="1" as="geometry">
            <mxPoint x="695" y="1060" as="sourcePoint" />
            <mxPoint x="745" y="1010" as="targetPoint" />
          </mxGeometry>
        </mxCell>
        <mxCell id="XMGHCFaLuTb-ErzqM0Ou-67" value="" style="endArrow=none;html=1;rounded=0;" parent="1" source="XMGHCFaLuTb-ErzqM0Ou-64" target="XMGHCFaLuTb-ErzqM0Ou-4" edge="1">
          <mxGeometry width="50" height="50" relative="1" as="geometry">
            <mxPoint x="755" y="1060" as="sourcePoint" />
            <mxPoint x="805" y="1010" as="targetPoint" />
          </mxGeometry>
        </mxCell>
        <mxCell id="XMGHCFaLuTb-ErzqM0Ou-68" value="" style="endArrow=none;html=1;rounded=0;" parent="1" source="XMGHCFaLuTb-ErzqM0Ou-4" target="XMGHCFaLuTb-ErzqM0Ou-63" edge="1">
          <mxGeometry width="50" height="50" relative="1" as="geometry">
            <mxPoint x="825" y="1000" as="sourcePoint" />
            <mxPoint x="875" y="950" as="targetPoint" />
          </mxGeometry>
        </mxCell>
        <mxCell id="XMGHCFaLuTb-ErzqM0Ou-69" value="" style="endArrow=none;html=1;rounded=0;" parent="1" source="XMGHCFaLuTb-ErzqM0Ou-4" target="XMGHCFaLuTb-ErzqM0Ou-65" edge="1">
          <mxGeometry width="50" height="50" relative="1" as="geometry">
            <mxPoint x="825" y="980" as="sourcePoint" />
            <mxPoint x="875" y="930" as="targetPoint" />
          </mxGeometry>
        </mxCell>
        <mxCell id="XMGHCFaLuTb-ErzqM0Ou-70" value="" style="endArrow=none;html=1;rounded=0;" parent="1" source="XMGHCFaLuTb-ErzqM0Ou-4" target="XMGHCFaLuTb-ErzqM0Ou-62" edge="1">
          <mxGeometry width="50" height="50" relative="1" as="geometry">
            <mxPoint x="825" y="950" as="sourcePoint" />
            <mxPoint x="875" y="900" as="targetPoint" />
          </mxGeometry>
        </mxCell>
        <mxCell id="XMGHCFaLuTb-ErzqM0Ou-71" value="&#xa;Appointment_Status&#xa;&#xa;" style="ellipse;whiteSpace=wrap;html=1;" parent="1" vertex="1">
          <mxGeometry x="50" y="330" width="130" height="70" as="geometry" />
        </mxCell>
        <mxCell id="XMGHCFaLuTb-ErzqM0Ou-72" value="&#xa;Appointment_ID&#xa;&#xa;" style="ellipse;whiteSpace=wrap;html=1;fontStyle=4" parent="1" vertex="1">
          <mxGeometry x="300" y="430.0000000000001" width="110" height="60" as="geometry" />
        </mxCell>
        <mxCell id="XMGHCFaLuTb-ErzqM0Ou-74" value="&#xa;Appointment_Date&#xa;&#xa;" style="ellipse;whiteSpace=wrap;html=1;" parent="1" vertex="1">
          <mxGeometry x="200" y="350.00000000000006" width="110" height="60" as="geometry" />
        </mxCell>
        <mxCell id="XMGHCFaLuTb-ErzqM0Ou-76" value="" style="endArrow=none;html=1;rounded=0;" parent="1" source="XMGHCFaLuTb-ErzqM0Ou-72" target="XMGHCFaLuTb-ErzqM0Ou-5" edge="1">
          <mxGeometry width="50" height="50" relative="1" as="geometry">
            <mxPoint x="400.42095709155456" y="638.3389247850291" as="sourcePoint" />
            <mxPoint x="350" y="539.1700000000001" as="targetPoint" />
          </mxGeometry>
        </mxCell>
        <mxCell id="XMGHCFaLuTb-ErzqM0Ou-78" value="" style="endArrow=none;html=1;rounded=0;" parent="1" source="XMGHCFaLuTb-ErzqM0Ou-5" target="XMGHCFaLuTb-ErzqM0Ou-74" edge="1">
          <mxGeometry width="50" height="50" relative="1" as="geometry">
            <mxPoint x="360" y="509.1700000000001" as="sourcePoint" />
            <mxPoint x="410" y="459.1700000000001" as="targetPoint" />
          </mxGeometry>
        </mxCell>
        <mxCell id="XMGHCFaLuTb-ErzqM0Ou-80" value="" style="endArrow=none;html=1;rounded=0;" parent="1" source="XMGHCFaLuTb-ErzqM0Ou-5" target="XMGHCFaLuTb-ErzqM0Ou-71" edge="1">
          <mxGeometry width="50" height="50" relative="1" as="geometry">
            <mxPoint x="310" y="479.1700000000001" as="sourcePoint" />
            <mxPoint x="355.42095709151954" y="360.00107521498967" as="targetPoint" />
          </mxGeometry>
        </mxCell>
        <mxCell id="XMGHCFaLuTb-ErzqM0Ou-83" value="&#xa;&lt;code&gt;Feedback_ID&lt;/code&gt; &#xa;&#xa;" style="ellipse;whiteSpace=wrap;html=1;fontStyle=4" parent="1" vertex="1">
          <mxGeometry x="-680" y="920" width="110" height="60" as="geometry" />
        </mxCell>
        <mxCell id="XMGHCFaLuTb-ErzqM0Ou-84" value="&#xa;Comments&#xa;&#xa;" style="ellipse;whiteSpace=wrap;html=1;" parent="1" vertex="1">
          <mxGeometry x="-625" y="1000" width="110" height="60" as="geometry" />
        </mxCell>
        <mxCell id="XMGHCFaLuTb-ErzqM0Ou-86" value="&#xa;Rating&#xa;&#xa;" style="ellipse;whiteSpace=wrap;html=1;" parent="1" vertex="1">
          <mxGeometry x="-510" y="960" width="110" height="60" as="geometry" />
        </mxCell>
        <mxCell id="XMGHCFaLuTb-ErzqM0Ou-87" value="Worker" style="rounded=0;whiteSpace=wrap;html=1;" parent="1" vertex="1">
          <mxGeometry x="55" y="1300" width="120" height="60" as="geometry" />
        </mxCell>
        <mxCell id="XMGHCFaLuTb-ErzqM0Ou-89" value="&#xa;Role&#xa;&#xa;" style="ellipse;whiteSpace=wrap;html=1;" parent="1" vertex="1">
          <mxGeometry x="50" y="1530" width="110" height="60" as="geometry" />
        </mxCell>
        <mxCell id="XMGHCFaLuTb-ErzqM0Ou-90" value="&#xa;Address&#xa;&#xa;" style="ellipse;whiteSpace=wrap;html=1;" parent="1" vertex="1">
          <mxGeometry x="240" y="1409.58" width="110" height="60" as="geometry" />
        </mxCell>
        <mxCell id="XMGHCFaLuTb-ErzqM0Ou-91" value="&#xa;Phone&#xa;&#xa;" style="ellipse;whiteSpace=wrap;html=1;" parent="1" vertex="1">
          <mxGeometry x="-10" y="1435" width="110" height="60" as="geometry" />
        </mxCell>
        <mxCell id="XMGHCFaLuTb-ErzqM0Ou-92" value="&#xa;Email&#xa;&#xa;" style="ellipse;whiteSpace=wrap;html=1;" parent="1" vertex="1">
          <mxGeometry x="140" y="1460" width="110" height="60" as="geometry" />
        </mxCell>
        <mxCell id="XMGHCFaLuTb-ErzqM0Ou-93" value="&#xa;Name&#xa;&#xa;" style="ellipse;whiteSpace=wrap;html=1;" parent="1" vertex="1">
          <mxGeometry x="260" y="1330" width="110" height="60" as="geometry" />
        </mxCell>
        <mxCell id="XMGHCFaLuTb-ErzqM0Ou-94" value="&#xa;Worker_ID&#xa;&#xa;" style="ellipse;whiteSpace=wrap;html=1;fontStyle=4" parent="1" vertex="1">
          <mxGeometry x="230" y="1230" width="110" height="60" as="geometry" />
        </mxCell>
        <mxCell id="XMGHCFaLuTb-ErzqM0Ou-95" value="" style="endArrow=none;html=1;rounded=0;exitX=0.75;exitY=0;exitDx=0;exitDy=0;" parent="1" source="XMGHCFaLuTb-ErzqM0Ou-87" target="XMGHCFaLuTb-ErzqM0Ou-94" edge="1">
          <mxGeometry width="50" height="50" relative="1" as="geometry">
            <mxPoint x="930" y="1560" as="sourcePoint" />
            <mxPoint x="980" y="1510" as="targetPoint" />
          </mxGeometry>
        </mxCell>
        <mxCell id="XMGHCFaLuTb-ErzqM0Ou-97" value="" style="endArrow=none;html=1;rounded=0;" parent="1" source="XMGHCFaLuTb-ErzqM0Ou-89" target="XMGHCFaLuTb-ErzqM0Ou-87" edge="1">
          <mxGeometry width="50" height="50" relative="1" as="geometry">
            <mxPoint x="774.5790429084977" y="1389.1689247850013" as="sourcePoint" />
            <mxPoint x="890" y="1410" as="targetPoint" />
          </mxGeometry>
        </mxCell>
        <mxCell id="XMGHCFaLuTb-ErzqM0Ou-98" value="" style="endArrow=none;html=1;rounded=0;" parent="1" source="XMGHCFaLuTb-ErzqM0Ou-90" target="XMGHCFaLuTb-ErzqM0Ou-87" edge="1">
          <mxGeometry width="50" height="50" relative="1" as="geometry">
            <mxPoint x="840" y="1430" as="sourcePoint" />
            <mxPoint x="890" y="1380" as="targetPoint" />
          </mxGeometry>
        </mxCell>
        <mxCell id="XMGHCFaLuTb-ErzqM0Ou-99" value="" style="endArrow=none;html=1;rounded=0;" parent="1" source="XMGHCFaLuTb-ErzqM0Ou-91" target="XMGHCFaLuTb-ErzqM0Ou-87" edge="1">
          <mxGeometry width="50" height="50" relative="1" as="geometry">
            <mxPoint x="840" y="1400" as="sourcePoint" />
            <mxPoint x="890" y="1350" as="targetPoint" />
          </mxGeometry>
        </mxCell>
        <mxCell id="XMGHCFaLuTb-ErzqM0Ou-100" value="" style="endArrow=none;html=1;rounded=0;exitX=0.5;exitY=0;exitDx=0;exitDy=0;" parent="1" source="XMGHCFaLuTb-ErzqM0Ou-92" target="XMGHCFaLuTb-ErzqM0Ou-87" edge="1">
          <mxGeometry width="50" height="50" relative="1" as="geometry">
            <mxPoint x="995" y="1510" as="sourcePoint" />
            <mxPoint x="870" y="1270" as="targetPoint" />
          </mxGeometry>
        </mxCell>
        <mxCell id="XMGHCFaLuTb-ErzqM0Ou-101" value="" style="endArrow=none;html=1;rounded=0;" parent="1" source="XMGHCFaLuTb-ErzqM0Ou-87" target="XMGHCFaLuTb-ErzqM0Ou-93" edge="1">
          <mxGeometry width="50" height="50" relative="1" as="geometry">
            <mxPoint x="870" y="1320" as="sourcePoint" />
            <mxPoint x="924.2993684389803" y="1219.4267367928046" as="targetPoint" />
          </mxGeometry>
        </mxCell>
        <mxCell id="XMGHCFaLuTb-ErzqM0Ou-105" value="" style="endArrow=none;html=1;rounded=0;" parent="1" source="XMGHCFaLuTb-ErzqM0Ou-83" target="XMGHCFaLuTb-ErzqM0Ou-2" edge="1">
          <mxGeometry width="50" height="50" relative="1" as="geometry">
            <mxPoint x="-867.5" y="1300" as="sourcePoint" />
            <mxPoint x="-817.5" y="1250" as="targetPoint" />
          </mxGeometry>
        </mxCell>
        <mxCell id="XMGHCFaLuTb-ErzqM0Ou-108" value="" style="endArrow=none;html=1;rounded=0;" parent="1" source="XMGHCFaLuTb-ErzqM0Ou-2" target="XMGHCFaLuTb-ErzqM0Ou-86" edge="1">
          <mxGeometry width="50" height="50" relative="1" as="geometry">
            <mxPoint x="-677.5" y="1370" as="sourcePoint" />
            <mxPoint x="-627.5" y="1320" as="targetPoint" />
          </mxGeometry>
        </mxCell>
        <mxCell id="XMGHCFaLuTb-ErzqM0Ou-109" value="" style="endArrow=none;html=1;rounded=0;" parent="1" source="XMGHCFaLuTb-ErzqM0Ou-2" target="XMGHCFaLuTb-ErzqM0Ou-84" edge="1">
          <mxGeometry width="50" height="50" relative="1" as="geometry">
            <mxPoint x="-647.5" y="1450" as="sourcePoint" />
            <mxPoint x="-597.5" y="1400" as="targetPoint" />
          </mxGeometry>
        </mxCell>
        <mxCell id="mCTyANqZK8J9GMuDv6o_-1" value="make" style="rhombus;whiteSpace=wrap;html=1;" parent="1" vertex="1">
          <mxGeometry x="-130" y="670" width="150" height="80" as="geometry" />
        </mxCell>
        <mxCell id="mCTyANqZK8J9GMuDv6o_-2" value="" style="endArrow=none;html=1;rounded=0;entryX=1;entryY=1;entryDx=0;entryDy=0;exitX=0.5;exitY=0;exitDx=0;exitDy=0;" parent="1" source="mCTyANqZK8J9GMuDv6o_-1" target="XMGHCFaLuTb-ErzqM0Ou-1" edge="1">
          <mxGeometry width="50" height="50" relative="1" as="geometry">
            <mxPoint x="-180" y="630" as="sourcePoint" />
            <mxPoint x="-130" y="580" as="targetPoint" />
          </mxGeometry>
        </mxCell>
        <mxCell id="mCTyANqZK8J9GMuDv6o_-5" value="1" style="edgeLabel;html=1;align=center;verticalAlign=middle;resizable=0;points=[];" parent="mCTyANqZK8J9GMuDv6o_-2" vertex="1" connectable="0">
          <mxGeometry x="0.8028" relative="1" as="geometry">
            <mxPoint y="-1" as="offset" />
          </mxGeometry>
        </mxCell>
        <mxCell id="mCTyANqZK8J9GMuDv6o_-4" value="" style="endArrow=none;html=1;rounded=0;entryX=0.5;entryY=1;entryDx=0;entryDy=0;" parent="1" source="XMGHCFaLuTb-ErzqM0Ou-34" target="mCTyANqZK8J9GMuDv6o_-1" edge="1">
          <mxGeometry width="50" height="50" relative="1" as="geometry">
            <mxPoint x="-30" y="1320" as="sourcePoint" />
            <mxPoint x="20" y="1270" as="targetPoint" />
          </mxGeometry>
        </mxCell>
        <mxCell id="mCTyANqZK8J9GMuDv6o_-6" value="M" style="edgeLabel;html=1;align=center;verticalAlign=middle;resizable=0;points=[];" parent="mCTyANqZK8J9GMuDv6o_-4" vertex="1" connectable="0">
          <mxGeometry x="-0.774" y="-1" relative="1" as="geometry">
            <mxPoint as="offset" />
          </mxGeometry>
        </mxCell>
        <mxCell id="mCTyANqZK8J9GMuDv6o_-7" value="make" style="rhombus;whiteSpace=wrap;html=1;" parent="1" vertex="1">
          <mxGeometry x="-20" y="450" width="80" height="80" as="geometry" />
        </mxCell>
        <mxCell id="mCTyANqZK8J9GMuDv6o_-8" value="" style="endArrow=none;html=1;rounded=0;entryX=0;entryY=0.5;entryDx=0;entryDy=0;exitX=1;exitY=0.5;exitDx=0;exitDy=0;" parent="1" source="XMGHCFaLuTb-ErzqM0Ou-1" target="mCTyANqZK8J9GMuDv6o_-7" edge="1">
          <mxGeometry width="50" height="50" relative="1" as="geometry">
            <mxPoint x="-90" y="550" as="sourcePoint" />
            <mxPoint x="-40" y="500" as="targetPoint" />
          </mxGeometry>
        </mxCell>
        <mxCell id="mCTyANqZK8J9GMuDv6o_-10" value="1" style="edgeLabel;html=1;align=center;verticalAlign=middle;resizable=0;points=[];" parent="mCTyANqZK8J9GMuDv6o_-8" vertex="1" connectable="0">
          <mxGeometry x="-0.6318" y="1" relative="1" as="geometry">
            <mxPoint x="-15" y="-6" as="offset" />
          </mxGeometry>
        </mxCell>
        <mxCell id="mCTyANqZK8J9GMuDv6o_-9" value="" style="endArrow=none;html=1;rounded=0;exitX=1;exitY=0.5;exitDx=0;exitDy=0;entryX=0;entryY=0.5;entryDx=0;entryDy=0;" parent="1" source="mCTyANqZK8J9GMuDv6o_-7" target="XMGHCFaLuTb-ErzqM0Ou-5" edge="1">
          <mxGeometry width="50" height="50" relative="1" as="geometry">
            <mxPoint x="140" y="530" as="sourcePoint" />
            <mxPoint x="190" y="480" as="targetPoint" />
          </mxGeometry>
        </mxCell>
        <mxCell id="mCTyANqZK8J9GMuDv6o_-11" value="M" style="edgeLabel;html=1;align=center;verticalAlign=middle;resizable=0;points=[];" parent="mCTyANqZK8J9GMuDv6o_-9" vertex="1" connectable="0">
          <mxGeometry x="0.656" y="2" relative="1" as="geometry">
            <mxPoint as="offset" />
          </mxGeometry>
        </mxCell>
        <mxCell id="mCTyANqZK8J9GMuDv6o_-17" value="has" style="rhombus;whiteSpace=wrap;html=1;" parent="1" vertex="1">
          <mxGeometry x="190" y="820" width="80" height="80" as="geometry" />
        </mxCell>
        <mxCell id="mCTyANqZK8J9GMuDv6o_-18" value="" style="endArrow=none;html=1;rounded=0;exitX=1;exitY=0.5;exitDx=0;exitDy=0;" parent="1" source="mCTyANqZK8J9GMuDv6o_-17" target="XMGHCFaLuTb-ErzqM0Ou-7" edge="1">
          <mxGeometry width="50" height="50" relative="1" as="geometry">
            <mxPoint x="447.5" y="1130" as="sourcePoint" />
            <mxPoint x="437.5" y="1020" as="targetPoint" />
          </mxGeometry>
        </mxCell>
        <mxCell id="mCTyANqZK8J9GMuDv6o_-21" value="1" style="edgeLabel;html=1;align=center;verticalAlign=middle;resizable=0;points=[];" parent="mCTyANqZK8J9GMuDv6o_-18" vertex="1" connectable="0">
          <mxGeometry x="0.5016" y="-3" relative="1" as="geometry">
            <mxPoint x="1" y="1" as="offset" />
          </mxGeometry>
        </mxCell>
        <mxCell id="mCTyANqZK8J9GMuDv6o_-19" value="" style="endArrow=none;html=1;rounded=0;entryX=0;entryY=0.5;entryDx=0;entryDy=0;" parent="1" source="XMGHCFaLuTb-ErzqM0Ou-34" target="mCTyANqZK8J9GMuDv6o_-17" edge="1">
          <mxGeometry width="50" height="50" relative="1" as="geometry">
            <mxPoint x="-150" y="1280" as="sourcePoint" />
            <mxPoint x="-100" y="1230" as="targetPoint" />
          </mxGeometry>
        </mxCell>
        <mxCell id="mCTyANqZK8J9GMuDv6o_-20" value="1" style="edgeLabel;html=1;align=center;verticalAlign=middle;resizable=0;points=[];" parent="mCTyANqZK8J9GMuDv6o_-19" vertex="1" connectable="0">
          <mxGeometry x="-0.5182" y="2" relative="1" as="geometry">
            <mxPoint as="offset" />
          </mxGeometry>
        </mxCell>
        <mxCell id="mCTyANqZK8J9GMuDv6o_-22" value="has" style="rhombus;whiteSpace=wrap;html=1;" parent="1" vertex="1">
          <mxGeometry x="-135" y="1015" width="80" height="80" as="geometry" />
        </mxCell>
        <mxCell id="mCTyANqZK8J9GMuDv6o_-23" value="" style="endArrow=none;html=1;rounded=0;entryX=0.5;entryY=0;entryDx=0;entryDy=0;" parent="1" source="XMGHCFaLuTb-ErzqM0Ou-34" target="mCTyANqZK8J9GMuDv6o_-22" edge="1">
          <mxGeometry width="50" height="50" relative="1" as="geometry">
            <mxPoint x="30" y="1420" as="sourcePoint" />
            <mxPoint x="80" y="1370" as="targetPoint" />
          </mxGeometry>
        </mxCell>
        <mxCell id="mCTyANqZK8J9GMuDv6o_-25" value="1" style="edgeLabel;html=1;align=center;verticalAlign=middle;resizable=0;points=[];" parent="mCTyANqZK8J9GMuDv6o_-23" vertex="1" connectable="0">
          <mxGeometry x="-0.4813" y="-5" relative="1" as="geometry">
            <mxPoint x="1" as="offset" />
          </mxGeometry>
        </mxCell>
        <mxCell id="mCTyANqZK8J9GMuDv6o_-27" value="do" style="rhombus;whiteSpace=wrap;html=1;" parent="1" vertex="1">
          <mxGeometry x="190" y="1040" width="80" height="80" as="geometry" />
        </mxCell>
        <mxCell id="mCTyANqZK8J9GMuDv6o_-28" value="" style="endArrow=none;html=1;rounded=0;entryX=0.5;entryY=1;entryDx=0;entryDy=0;" parent="1" source="XMGHCFaLuTb-ErzqM0Ou-87" target="mCTyANqZK8J9GMuDv6o_-27" edge="1">
          <mxGeometry width="50" height="50" relative="1" as="geometry">
            <mxPoint x="720" y="1630" as="sourcePoint" />
            <mxPoint x="770" y="1580" as="targetPoint" />
          </mxGeometry>
        </mxCell>
        <mxCell id="mCTyANqZK8J9GMuDv6o_-36" value="1" style="edgeLabel;html=1;align=center;verticalAlign=middle;resizable=0;points=[];" parent="mCTyANqZK8J9GMuDv6o_-28" vertex="1" connectable="0">
          <mxGeometry x="-0.5591" y="-3" relative="1" as="geometry">
            <mxPoint as="offset" />
          </mxGeometry>
        </mxCell>
        <mxCell id="mCTyANqZK8J9GMuDv6o_-29" value="" style="endArrow=none;html=1;rounded=0;exitX=0.5;exitY=0;exitDx=0;exitDy=0;" parent="1" source="mCTyANqZK8J9GMuDv6o_-27" target="XMGHCFaLuTb-ErzqM0Ou-7" edge="1">
          <mxGeometry width="50" height="50" relative="1" as="geometry">
            <mxPoint x="700" y="1440" as="sourcePoint" />
            <mxPoint x="510" y="1250" as="targetPoint" />
          </mxGeometry>
        </mxCell>
        <mxCell id="mCTyANqZK8J9GMuDv6o_-35" value="M" style="edgeLabel;html=1;align=center;verticalAlign=middle;resizable=0;points=[];" parent="mCTyANqZK8J9GMuDv6o_-29" vertex="1" connectable="0">
          <mxGeometry x="0.755" y="-3" relative="1" as="geometry">
            <mxPoint x="-1" as="offset" />
          </mxGeometry>
        </mxCell>
        <mxCell id="mCTyANqZK8J9GMuDv6o_-30" value="use" style="rhombus;whiteSpace=wrap;html=1;" parent="1" vertex="1">
          <mxGeometry x="480" y="880" width="80" height="80" as="geometry" />
        </mxCell>
        <mxCell id="mCTyANqZK8J9GMuDv6o_-31" value="" style="endArrow=none;html=1;rounded=0;entryX=1;entryY=1;entryDx=0;entryDy=0;exitX=0.5;exitY=0;exitDx=0;exitDy=0;" parent="1" source="mCTyANqZK8J9GMuDv6o_-30" target="XMGHCFaLuTb-ErzqM0Ou-7" edge="1">
          <mxGeometry width="50" height="50" relative="1" as="geometry">
            <mxPoint x="380" y="1160" as="sourcePoint" />
            <mxPoint x="430" y="1110" as="targetPoint" />
          </mxGeometry>
        </mxCell>
        <mxCell id="mCTyANqZK8J9GMuDv6o_-33" value="M" style="edgeLabel;html=1;align=center;verticalAlign=middle;resizable=0;points=[];" parent="mCTyANqZK8J9GMuDv6o_-31" vertex="1" connectable="0">
          <mxGeometry x="0.5269" y="-2" relative="1" as="geometry">
            <mxPoint as="offset" />
          </mxGeometry>
        </mxCell>
        <mxCell id="mCTyANqZK8J9GMuDv6o_-32" value="" style="endArrow=none;html=1;rounded=0;exitX=1;exitY=0.5;exitDx=0;exitDy=0;entryX=0;entryY=0;entryDx=0;entryDy=0;" parent="1" source="mCTyANqZK8J9GMuDv6o_-30" target="XMGHCFaLuTb-ErzqM0Ou-4" edge="1">
          <mxGeometry width="50" height="50" relative="1" as="geometry">
            <mxPoint x="670" y="950" as="sourcePoint" />
            <mxPoint x="720" y="900" as="targetPoint" />
          </mxGeometry>
        </mxCell>
        <mxCell id="mCTyANqZK8J9GMuDv6o_-34" value="M" style="edgeLabel;html=1;align=center;verticalAlign=middle;resizable=0;points=[];" parent="mCTyANqZK8J9GMuDv6o_-32" vertex="1" connectable="0">
          <mxGeometry x="0.1841" y="4" relative="1" as="geometry">
            <mxPoint as="offset" />
          </mxGeometry>
        </mxCell>
        <mxCell id="XMGHCFaLuTb-ErzqM0Ou-16" value="&#xa;Name&#xa;&#xa;" style="ellipse;whiteSpace=wrap;html=1;" parent="1" vertex="1">
          <mxGeometry x="-295" y="360" width="110" height="60" as="geometry" />
        </mxCell>
        <mxCell id="QH4C9bZdyQ2NckHa1oD1-29" value="Title" style="ellipse;whiteSpace=wrap;html=1;" parent="1" vertex="1">
          <mxGeometry x="-170" y="270" width="90" height="50" as="geometry" />
        </mxCell>
        <mxCell id="QH4C9bZdyQ2NckHa1oD1-30" value="Last name" style="ellipse;whiteSpace=wrap;html=1;" parent="1" vertex="1">
          <mxGeometry x="-365" y="260" width="95" height="50" as="geometry" />
        </mxCell>
        <mxCell id="QH4C9bZdyQ2NckHa1oD1-31" value="First name" style="ellipse;whiteSpace=wrap;html=1;" parent="1" vertex="1">
          <mxGeometry x="-270" y="220" width="100" height="50" as="geometry" />
        </mxCell>
        <mxCell id="QH4C9bZdyQ2NckHa1oD1-32" value="" style="endArrow=none;html=1;rounded=0;" parent="1" source="XMGHCFaLuTb-ErzqM0Ou-16" target="QH4C9bZdyQ2NckHa1oD1-29" edge="1">
          <mxGeometry width="50" height="50" relative="1" as="geometry">
            <mxPoint x="20" y="490" as="sourcePoint" />
            <mxPoint x="70" y="440" as="targetPoint" />
          </mxGeometry>
        </mxCell>
        <mxCell id="QH4C9bZdyQ2NckHa1oD1-34" value="" style="endArrow=none;html=1;rounded=0;" parent="1" source="XMGHCFaLuTb-ErzqM0Ou-16" target="QH4C9bZdyQ2NckHa1oD1-31" edge="1">
          <mxGeometry width="50" height="50" relative="1" as="geometry">
            <mxPoint x="20" y="490" as="sourcePoint" />
            <mxPoint x="70" y="440" as="targetPoint" />
          </mxGeometry>
        </mxCell>
        <mxCell id="QH4C9bZdyQ2NckHa1oD1-35" value="" style="endArrow=none;html=1;rounded=0;" parent="1" source="XMGHCFaLuTb-ErzqM0Ou-16" target="QH4C9bZdyQ2NckHa1oD1-30" edge="1">
          <mxGeometry width="50" height="50" relative="1" as="geometry">
            <mxPoint x="-231" y="370" as="sourcePoint" />
            <mxPoint x="-234" y="320" as="targetPoint" />
          </mxGeometry>
        </mxCell>
        <mxCell id="QH4C9bZdyQ2NckHa1oD1-36" value="adds" style="rhombus;whiteSpace=wrap;html=1;" parent="1" vertex="1">
          <mxGeometry x="190" y="670" width="80" height="80" as="geometry" />
        </mxCell>
        <mxCell id="QH4C9bZdyQ2NckHa1oD1-38" value="" style="endArrow=none;html=1;rounded=0;exitX=0.5;exitY=0;exitDx=0;exitDy=0;" parent="1" source="QH4C9bZdyQ2NckHa1oD1-36" target="XMGHCFaLuTb-ErzqM0Ou-5" edge="1">
          <mxGeometry width="50" height="50" relative="1" as="geometry">
            <mxPoint x="370" y="1040" as="sourcePoint" />
            <mxPoint x="360" y="590" as="targetPoint" />
          </mxGeometry>
        </mxCell>
        <mxCell id="QH4C9bZdyQ2NckHa1oD1-41" value="1" style="edgeLabel;html=1;align=center;verticalAlign=middle;resizable=0;points=[];" parent="QH4C9bZdyQ2NckHa1oD1-38" vertex="1" connectable="0">
          <mxGeometry x="0.868" y="5" relative="1" as="geometry">
            <mxPoint y="1" as="offset" />
          </mxGeometry>
        </mxCell>
        <mxCell id="QH4C9bZdyQ2NckHa1oD1-39" value="" style="endArrow=none;html=1;rounded=0;entryX=0.5;entryY=1;entryDx=0;entryDy=0;" parent="1" source="XMGHCFaLuTb-ErzqM0Ou-34" target="QH4C9bZdyQ2NckHa1oD1-36" edge="1">
          <mxGeometry width="50" height="50" relative="1" as="geometry">
            <mxPoint x="90" y="899" as="sourcePoint" />
            <mxPoint x="293" y="549" as="targetPoint" />
          </mxGeometry>
        </mxCell>
        <mxCell id="QH4C9bZdyQ2NckHa1oD1-40" value="1" style="edgeLabel;html=1;align=center;verticalAlign=middle;resizable=0;points=[];" parent="QH4C9bZdyQ2NckHa1oD1-39" vertex="1" connectable="0">
          <mxGeometry x="-0.8606" relative="1" as="geometry">
            <mxPoint y="-1" as="offset" />
          </mxGeometry>
        </mxCell>
        <mxCell id="QH4C9bZdyQ2NckHa1oD1-48" value="Payment" style="rounded=0;whiteSpace=wrap;html=1;" parent="1" vertex="1">
          <mxGeometry x="-350" y="1120" width="120" height="60" as="geometry" />
        </mxCell>
        <mxCell id="QH4C9bZdyQ2NckHa1oD1-49" value="Payment ID&lt;span style=&quot;color: rgba(0, 0, 0, 0); font-family: monospace; font-size: 0px; text-align: start; text-wrap: nowrap;&quot;&gt;%3CmxGraphModel%3E%3Croot%3E%3CmxCell%20id%3D%220%22%2F%3E%3CmxCell%20id%3D%221%22%20parent%3D%220%22%2F%3E%3CmxCell%20id%3D%222%22%20value%3D%22%22%20style%3D%22endArrow%3Dnone%3Bhtml%3D1%3Brounded%3D0%3BexitX%3D1%3BexitY%3D0.5%3BexitDx%3D0%3BexitDy%3D0%3B%22%20edge%3D%221%22%20parent%3D%221%22%3E%3CmxGeometry%20width%3D%2250%22%20height%3D%2250%22%20relative%3D%221%22%20as%3D%22geometry%22%3E%3CmxPoint%20x%3D%2280%22%20y%3D%22889%22%20as%3D%22sourcePoint%22%2F%3E%3CmxPoint%20x%3D%22283%22%20y%3D%22539%22%20as%3D%22targetPoint%22%2F%3E%3C%2FmxGeometry%3E%3C%2FmxCell%3E%3C%2Froot%3E%3C%2FmxGraphModel%3E&lt;/span&gt;" style="ellipse;whiteSpace=wrap;html=1;fontStyle=4" parent="1" vertex="1">
          <mxGeometry x="-495" y="1210" width="110" height="65" as="geometry" />
        </mxCell>
        <mxCell id="QH4C9bZdyQ2NckHa1oD1-50" value="Amount" style="ellipse;whiteSpace=wrap;html=1;" parent="1" vertex="1">
          <mxGeometry x="-400" y="1275" width="110" height="60" as="geometry" />
        </mxCell>
        <mxCell id="QH4C9bZdyQ2NckHa1oD1-51" value="Payment date" style="ellipse;whiteSpace=wrap;html=1;" parent="1" vertex="1">
          <mxGeometry x="-510" y="1130" width="110" height="70" as="geometry" />
        </mxCell>
        <mxCell id="QH4C9bZdyQ2NckHa1oD1-53" value="" style="endArrow=none;html=1;rounded=0;" parent="1" source="QH4C9bZdyQ2NckHa1oD1-49" target="QH4C9bZdyQ2NckHa1oD1-48" edge="1">
          <mxGeometry width="50" height="50" relative="1" as="geometry">
            <mxPoint x="100" y="1660" as="sourcePoint" />
            <mxPoint x="150" y="1610" as="targetPoint" />
          </mxGeometry>
        </mxCell>
        <mxCell id="QH4C9bZdyQ2NckHa1oD1-54" value="" style="endArrow=none;html=1;rounded=0;" parent="1" source="QH4C9bZdyQ2NckHa1oD1-50" target="QH4C9bZdyQ2NckHa1oD1-48" edge="1">
          <mxGeometry width="50" height="50" relative="1" as="geometry">
            <mxPoint x="-358" y="1730" as="sourcePoint" />
            <mxPoint x="-210" y="1673" as="targetPoint" />
          </mxGeometry>
        </mxCell>
        <mxCell id="QH4C9bZdyQ2NckHa1oD1-55" value="" style="endArrow=none;html=1;rounded=0;" parent="1" source="QH4C9bZdyQ2NckHa1oD1-51" target="QH4C9bZdyQ2NckHa1oD1-48" edge="1">
          <mxGeometry width="50" height="50" relative="1" as="geometry">
            <mxPoint x="-348" y="1740" as="sourcePoint" />
            <mxPoint x="-200" y="1683" as="targetPoint" />
          </mxGeometry>
        </mxCell>
        <mxCell id="QH4C9bZdyQ2NckHa1oD1-56" value="" style="endArrow=none;html=1;rounded=0;entryX=0.5;entryY=1;entryDx=0;entryDy=0;" parent="1" source="QH4C9bZdyQ2NckHa1oD1-48" target="mCTyANqZK8J9GMuDv6o_-22" edge="1">
          <mxGeometry width="50" height="50" relative="1" as="geometry">
            <mxPoint x="110" y="1580" as="sourcePoint" />
            <mxPoint x="160" y="1530" as="targetPoint" />
          </mxGeometry>
        </mxCell>
        <mxCell id="QH4C9bZdyQ2NckHa1oD1-68" value="1" style="edgeLabel;html=1;align=center;verticalAlign=middle;resizable=0;points=[];" parent="QH4C9bZdyQ2NckHa1oD1-56" vertex="1" connectable="0">
          <mxGeometry x="-0.6377" y="-2" relative="1" as="geometry">
            <mxPoint as="offset" />
          </mxGeometry>
        </mxCell>
        <mxCell id="QH4C9bZdyQ2NckHa1oD1-57" value="make" style="rhombus;whiteSpace=wrap;html=1;" parent="1" vertex="1">
          <mxGeometry x="-495" y="710.83" width="150" height="80" as="geometry" />
        </mxCell>
        <mxCell id="QH4C9bZdyQ2NckHa1oD1-58" value="" style="endArrow=none;html=1;rounded=0;exitX=0.5;exitY=0;exitDx=0;exitDy=0;" parent="1" source="QH4C9bZdyQ2NckHa1oD1-57" target="XMGHCFaLuTb-ErzqM0Ou-1" edge="1">
          <mxGeometry width="50" height="50" relative="1" as="geometry">
            <mxPoint x="60" y="1060" as="sourcePoint" />
            <mxPoint x="110" y="1010" as="targetPoint" />
          </mxGeometry>
        </mxCell>
        <mxCell id="QH4C9bZdyQ2NckHa1oD1-66" value="1" style="edgeLabel;html=1;align=center;verticalAlign=middle;resizable=0;points=[];" parent="QH4C9bZdyQ2NckHa1oD1-58" vertex="1" connectable="0">
          <mxGeometry x="0.8702" y="-1" relative="1" as="geometry">
            <mxPoint as="offset" />
          </mxGeometry>
        </mxCell>
        <mxCell id="QH4C9bZdyQ2NckHa1oD1-59" value="" style="endArrow=none;html=1;rounded=0;entryX=0.5;entryY=1;entryDx=0;entryDy=0;" parent="1" source="XMGHCFaLuTb-ErzqM0Ou-2" target="QH4C9bZdyQ2NckHa1oD1-57" edge="1">
          <mxGeometry width="50" height="50" relative="1" as="geometry">
            <mxPoint x="-200" y="1220" as="sourcePoint" />
            <mxPoint x="-674.9999999999998" y="979.9999999999998" as="targetPoint" />
          </mxGeometry>
        </mxCell>
        <mxCell id="QH4C9bZdyQ2NckHa1oD1-67" value="M" style="edgeLabel;html=1;align=center;verticalAlign=middle;resizable=0;points=[];" parent="QH4C9bZdyQ2NckHa1oD1-59" vertex="1" connectable="0">
          <mxGeometry x="-0.8184" y="-1" relative="1" as="geometry">
            <mxPoint as="offset" />
          </mxGeometry>
        </mxCell>
        <mxCell id="QH4C9bZdyQ2NckHa1oD1-63" value="generates" style="rhombus;whiteSpace=wrap;html=1;" parent="1" vertex="1">
          <mxGeometry x="-180" y="1220" width="80" height="80" as="geometry" />
        </mxCell>
        <mxCell id="QH4C9bZdyQ2NckHa1oD1-64" value="" style="endArrow=none;html=1;rounded=0;entryX=0.5;entryY=0;entryDx=0;entryDy=0;" parent="1" source="QH4C9bZdyQ2NckHa1oD1-48" target="QH4C9bZdyQ2NckHa1oD1-63" edge="1">
          <mxGeometry width="50" height="50" relative="1" as="geometry">
            <mxPoint x="200" y="1460" as="sourcePoint" />
            <mxPoint x="250" y="1410" as="targetPoint" />
          </mxGeometry>
        </mxCell>
        <mxCell id="6DCUN2IV6UkUwcPhrK3Y-1" value="1" style="edgeLabel;html=1;align=center;verticalAlign=middle;resizable=0;points=[];" parent="QH4C9bZdyQ2NckHa1oD1-64" vertex="1" connectable="0">
          <mxGeometry x="-0.69" y="1" relative="1" as="geometry">
            <mxPoint as="offset" />
          </mxGeometry>
        </mxCell>
        <mxCell id="QH4C9bZdyQ2NckHa1oD1-65" value="" style="endArrow=none;html=1;rounded=0;exitX=0.5;exitY=1;exitDx=0;exitDy=0;" parent="1" source="QH4C9bZdyQ2NckHa1oD1-63" target="XMGHCFaLuTb-ErzqM0Ou-50" edge="1">
          <mxGeometry width="50" height="50" relative="1" as="geometry">
            <mxPoint x="222.5" y="1455" as="sourcePoint" />
            <mxPoint x="272.5" y="1405" as="targetPoint" />
          </mxGeometry>
        </mxCell>
        <mxCell id="QH4C9bZdyQ2NckHa1oD1-69" value="1" style="edgeLabel;html=1;align=center;verticalAlign=middle;resizable=0;points=[];" parent="QH4C9bZdyQ2NckHa1oD1-65" vertex="1" connectable="0">
          <mxGeometry x="0.7244" y="-3" relative="1" as="geometry">
            <mxPoint as="offset" />
          </mxGeometry>
        </mxCell>
        <mxCell id="6DCUN2IV6UkUwcPhrK3Y-5" value="Description" style="ellipse;whiteSpace=wrap;html=1;" parent="1" vertex="1">
          <mxGeometry x="90" y="910" width="100" height="40" as="geometry" />
        </mxCell>
        <mxCell id="6DCUN2IV6UkUwcPhrK3Y-6" value="Makes" style="rhombus;whiteSpace=wrap;html=1;" parent="1" vertex="1">
          <mxGeometry x="-335" y="870" width="80" height="80" as="geometry" />
        </mxCell>
        <mxCell id="6DCUN2IV6UkUwcPhrK3Y-7" value="" style="endArrow=none;html=1;rounded=0;exitX=0.5;exitY=0;exitDx=0;exitDy=0;" parent="1" source="6DCUN2IV6UkUwcPhrK3Y-6" target="XMGHCFaLuTb-ErzqM0Ou-1" edge="1">
          <mxGeometry width="50" height="50" relative="1" as="geometry">
            <mxPoint x="-110" y="940" as="sourcePoint" />
            <mxPoint x="-60" y="890" as="targetPoint" />
          </mxGeometry>
        </mxCell>
        <mxCell id="6DCUN2IV6UkUwcPhrK3Y-8" value="" style="endArrow=none;html=1;rounded=0;exitX=0.5;exitY=1;exitDx=0;exitDy=0;" parent="1" source="6DCUN2IV6UkUwcPhrK3Y-6" target="QH4C9bZdyQ2NckHa1oD1-48" edge="1">
          <mxGeometry width="50" height="50" relative="1" as="geometry">
            <mxPoint x="-110" y="1310" as="sourcePoint" />
            <mxPoint x="-60" y="1260" as="targetPoint" />
          </mxGeometry>
        </mxCell>
        <mxCell id="6DCUN2IV6UkUwcPhrK3Y-12" value="Date" style="ellipse;whiteSpace=wrap;html=1;" parent="1" vertex="1">
          <mxGeometry x="460" y="1000" width="90" height="60" as="geometry" />
        </mxCell>
        <mxCell id="6DCUN2IV6UkUwcPhrK3Y-13" value="Used units" style="ellipse;whiteSpace=wrap;html=1;" parent="1" vertex="1">
          <mxGeometry x="375" y="955" width="85" height="60" as="geometry" />
        </mxCell>
        <mxCell id="6DCUN2IV6UkUwcPhrK3Y-17" value="" style="endArrow=none;html=1;rounded=0;entryX=0.5;entryY=1;entryDx=0;entryDy=0;" parent="1" source="6DCUN2IV6UkUwcPhrK3Y-13" target="mCTyANqZK8J9GMuDv6o_-30" edge="1">
          <mxGeometry width="50" height="50" relative="1" as="geometry">
            <mxPoint x="480" y="800" as="sourcePoint" />
            <mxPoint x="530" y="750" as="targetPoint" />
          </mxGeometry>
        </mxCell>
        <mxCell id="6DCUN2IV6UkUwcPhrK3Y-18" value="" style="endArrow=none;html=1;rounded=0;entryX=0.5;entryY=1;entryDx=0;entryDy=0;" parent="1" source="6DCUN2IV6UkUwcPhrK3Y-12" target="mCTyANqZK8J9GMuDv6o_-30" edge="1">
          <mxGeometry width="50" height="50" relative="1" as="geometry">
            <mxPoint x="587.13740317466" y="963.3944860214283" as="sourcePoint" />
            <mxPoint x="620" y="920" as="targetPoint" />
          </mxGeometry>
        </mxCell>
        <mxCell id="6DCUN2IV6UkUwcPhrK3Y-19" value="Add_line_2" style="ellipse;whiteSpace=wrap;html=1;" parent="1" vertex="1">
          <mxGeometry x="-500" y="610.83" width="90" height="49.17" as="geometry" />
        </mxCell>
        <mxCell id="6DCUN2IV6UkUwcPhrK3Y-20" value="Add_line_1" style="ellipse;whiteSpace=wrap;html=1;" parent="1" vertex="1">
          <mxGeometry x="-600" y="590" width="90" height="59.17" as="geometry" />
        </mxCell>
        <mxCell id="6DCUN2IV6UkUwcPhrK3Y-21" value="Number" style="ellipse;whiteSpace=wrap;html=1;" parent="1" vertex="1">
          <mxGeometry x="-615" y="520" width="90" height="60" as="geometry" />
        </mxCell>
        <mxCell id="6DCUN2IV6UkUwcPhrK3Y-22" value="" style="endArrow=none;html=1;rounded=0;" parent="1" source="6DCUN2IV6UkUwcPhrK3Y-21" target="XMGHCFaLuTb-ErzqM0Ou-13" edge="1">
          <mxGeometry width="50" height="50" relative="1" as="geometry">
            <mxPoint x="-300" y="650" as="sourcePoint" />
            <mxPoint x="-250" y="600" as="targetPoint" />
          </mxGeometry>
        </mxCell>
        <mxCell id="6DCUN2IV6UkUwcPhrK3Y-23" value="" style="endArrow=none;html=1;rounded=0;" parent="1" source="6DCUN2IV6UkUwcPhrK3Y-20" target="XMGHCFaLuTb-ErzqM0Ou-13" edge="1">
          <mxGeometry width="50" height="50" relative="1" as="geometry">
            <mxPoint x="-581.8470419521502" y="519.8484848306841" as="sourcePoint" />
            <mxPoint x="-462.4009347241147" y="540.8867939610236" as="targetPoint" />
          </mxGeometry>
        </mxCell>
        <mxCell id="6DCUN2IV6UkUwcPhrK3Y-24" value="" style="endArrow=none;html=1;rounded=0;" parent="1" source="6DCUN2IV6UkUwcPhrK3Y-19" target="XMGHCFaLuTb-ErzqM0Ou-13" edge="1">
          <mxGeometry width="50" height="50" relative="1" as="geometry">
            <mxPoint x="-571.8470419521502" y="529.8484848306841" as="sourcePoint" />
            <mxPoint x="-452.4009347241147" y="550.8867939610236" as="targetPoint" />
          </mxGeometry>
        </mxCell>
        <mxCell id="6DCUN2IV6UkUwcPhrK3Y-25" value="Title" style="ellipse;whiteSpace=wrap;html=1;" parent="1" vertex="1">
          <mxGeometry x="507.5" y="1320" width="90" height="50" as="geometry" />
        </mxCell>
        <mxCell id="6DCUN2IV6UkUwcPhrK3Y-26" value="Last name" style="ellipse;whiteSpace=wrap;html=1;" parent="1" vertex="1">
          <mxGeometry x="505" y="1385" width="95" height="50" as="geometry" />
        </mxCell>
        <mxCell id="6DCUN2IV6UkUwcPhrK3Y-27" value="First name" style="ellipse;whiteSpace=wrap;html=1;" parent="1" vertex="1">
          <mxGeometry x="385" y="1285" width="100" height="50" as="geometry" />
        </mxCell>
        <mxCell id="6DCUN2IV6UkUwcPhrK3Y-28" value="" style="endArrow=none;html=1;rounded=0;" parent="1" source="6DCUN2IV6UkUwcPhrK3Y-26" target="XMGHCFaLuTb-ErzqM0Ou-93" edge="1">
          <mxGeometry width="50" height="50" relative="1" as="geometry">
            <mxPoint x="500" y="1210" as="sourcePoint" />
            <mxPoint x="550" y="1160" as="targetPoint" />
          </mxGeometry>
        </mxCell>
        <mxCell id="6DCUN2IV6UkUwcPhrK3Y-35" value="" style="endArrow=none;html=1;rounded=0;" parent="1" source="6DCUN2IV6UkUwcPhrK3Y-27" target="XMGHCFaLuTb-ErzqM0Ou-93" edge="1">
          <mxGeometry width="50" height="50" relative="1" as="geometry">
            <mxPoint x="870.4493936656536" y="1241.5692266214537" as="sourcePoint" />
            <mxPoint x="779.4923544034841" y="1234.0665936122" as="targetPoint" />
          </mxGeometry>
        </mxCell>
        <mxCell id="6DCUN2IV6UkUwcPhrK3Y-36" value="" style="endArrow=none;html=1;rounded=0;" parent="1" source="6DCUN2IV6UkUwcPhrK3Y-25" target="XMGHCFaLuTb-ErzqM0Ou-93" edge="1">
          <mxGeometry width="50" height="50" relative="1" as="geometry">
            <mxPoint x="880.4493936656536" y="1251.5692266214537" as="sourcePoint" />
            <mxPoint x="789.4923544034841" y="1244.0665936122" as="targetPoint" />
          </mxGeometry>
        </mxCell>
        <mxCell id="6DCUN2IV6UkUwcPhrK3Y-37" value="Add_line_2" style="ellipse;whiteSpace=wrap;html=1;" parent="1" vertex="1">
          <mxGeometry x="370" y="1510" width="90" height="49.17" as="geometry" />
        </mxCell>
        <mxCell id="6DCUN2IV6UkUwcPhrK3Y-38" value="Add_line_1" style="ellipse;whiteSpace=wrap;html=1;" parent="1" vertex="1">
          <mxGeometry x="240" y="1530.83" width="90" height="59.17" as="geometry" />
        </mxCell>
        <mxCell id="6DCUN2IV6UkUwcPhrK3Y-39" value="Number" style="ellipse;whiteSpace=wrap;html=1;" parent="1" vertex="1">
          <mxGeometry x="420" y="1435" width="90" height="60" as="geometry" />
        </mxCell>
        <mxCell id="6DCUN2IV6UkUwcPhrK3Y-40" value="" style="endArrow=none;html=1;rounded=0;" parent="1" source="6DCUN2IV6UkUwcPhrK3Y-39" target="XMGHCFaLuTb-ErzqM0Ou-90" edge="1">
          <mxGeometry width="50" height="50" relative="1" as="geometry">
            <mxPoint x="1175" y="1500" as="sourcePoint" />
            <mxPoint x="1000.4062565156398" y="1393.6395828989573" as="targetPoint" />
          </mxGeometry>
        </mxCell>
        <mxCell id="6DCUN2IV6UkUwcPhrK3Y-41" value="" style="endArrow=none;html=1;rounded=0;" parent="1" source="6DCUN2IV6UkUwcPhrK3Y-38" target="XMGHCFaLuTb-ErzqM0Ou-90" edge="1">
          <mxGeometry width="50" height="50" relative="1" as="geometry">
            <mxPoint x="893.1529580478498" y="1369.8484848306841" as="sourcePoint" />
            <mxPoint x="1017.4961949451401" y="1411.9437157235884" as="targetPoint" />
          </mxGeometry>
        </mxCell>
        <mxCell id="6DCUN2IV6UkUwcPhrK3Y-42" value="" style="endArrow=none;html=1;rounded=0;" parent="1" source="6DCUN2IV6UkUwcPhrK3Y-37" target="XMGHCFaLuTb-ErzqM0Ou-90" edge="1">
          <mxGeometry width="50" height="50" relative="1" as="geometry">
            <mxPoint x="903.1529580478498" y="1379.8484848306841" as="sourcePoint" />
            <mxPoint x="1044.2993684389833" y="1419.4267367927964" as="targetPoint" />
          </mxGeometry>
        </mxCell>
        <mxCell id="6DCUN2IV6UkUwcPhrK3Y-44" style="edgeStyle=orthogonalEdgeStyle;rounded=0;orthogonalLoop=1;jettySize=auto;html=1;exitX=0.5;exitY=1;exitDx=0;exitDy=0;" parent="1" source="XMGHCFaLuTb-ErzqM0Ou-89" target="XMGHCFaLuTb-ErzqM0Ou-89" edge="1">
          <mxGeometry relative="1" as="geometry" />
        </mxCell>
      </root>
    </mxGraphModel>
  </diagram>
</mxfile>
